<svg width="124" height="142" viewBox="0 0 124 142" fill="none" xmlns="http://www.w3.org/2000/svg">
<path d="M26.5714 0C11.9018 0 0 11.9258 0 26.625V115.375C0 130.074 11.9018 142 26.5714 142H106.286H115.143C120.042 142 124 138.034 124 133.125C124 128.216 120.042 124.25 115.143 124.25V106.5C120.042 106.5 124 102.534 124 97.625V8.875C124 3.96602 120.042 0 115.143 0H106.286H26.5714ZM26.5714 106.5H97.4286V124.25H26.5714C21.6723 124.25 17.7143 120.284 17.7143 115.375C17.7143 110.466 21.6723 106.5 26.5714 106.5ZM35.4286 39.9375C35.4286 37.4969 37.4214 35.5 39.8571 35.5H93C95.4357 35.5 97.4286 37.4969 97.4286 39.9375C97.4286 42.3781 95.4357 44.375 93 44.375H39.8571C37.4214 44.375 35.4286 42.3781 35.4286 39.9375ZM39.8571 53.25H93C95.4357 53.25 97.4286 55.2469 97.4286 57.6875C97.4286 60.1281 95.4357 62.125 93 62.125H39.8571C37.4214 62.125 35.4286 60.1281 35.4286 57.6875C35.4286 55.2469 37.4214 53.25 39.8571 53.25Z" fill="black" fill-opacity="0.2"/>
</svg>
