<svg width="139" height="139" viewBox="0 0 139 139" fill="none" xmlns="http://www.w3.org/2000/svg">
<path d="M34.75 0C25.1666 0 17.375 7.7916 17.375 17.375V43.4375H34.75V17.375H96.2955L104.25 25.3295V43.4375H121.625V25.3295C121.625 20.7143 119.806 16.2891 116.548 13.0312L108.594 5.07676C105.336 1.81895 100.911 0 96.2955 0H34.75ZM104.25 95.5625V104.25V121.625H34.75V104.25V99.9062V95.5625H104.25ZM121.625 104.25H130.312C135.118 104.25 139 100.368 139 95.5625V69.5C139 59.9166 131.208 52.125 121.625 52.125H17.375C7.7916 52.125 0 59.9166 0 69.5V95.5625C0 100.368 3.88223 104.25 8.6875 104.25H17.375V121.625C17.375 131.208 25.1666 139 34.75 139H104.25C113.833 139 121.625 131.208 121.625 121.625V104.25ZM117.281 80.3594C113.671 80.3594 110.766 77.4545 110.766 73.8438C110.766 70.233 113.671 67.3281 117.281 67.3281C120.892 67.3281 123.797 70.233 123.797 73.8438C123.797 77.4545 120.892 80.3594 117.281 80.3594Z" fill="black" fill-opacity="0.2"/>
</svg>
