<svg width="146" height="146" viewBox="0 0 146 146" fill="none" xmlns="http://www.w3.org/2000/svg">
<path d="M66.2988 1.47583C70.5477 -0.491943 75.4523 -0.491943 79.7012 1.47583L142.036 30.2794C144.46 31.3916 146 33.8157 146 36.4964C146 39.1772 144.46 41.6012 142.036 42.7135L79.7012 71.5171C75.4523 73.4848 70.5477 73.4848 66.2988 71.5171L3.96367 42.7135C1.53984 41.5727 0 39.1486 0 36.4964C0 33.8442 1.53984 31.3916 3.96367 30.2794L66.2988 1.47583ZM126.866 59.7675L142.036 66.783C144.46 67.8952 146 70.3193 146 73C146 75.6807 144.46 78.1048 142.036 79.217L79.7012 108.021C75.4523 109.988 70.5477 109.988 66.2988 108.021L3.96367 79.217C1.53984 78.0763 0 75.6522 0 73C0 70.3478 1.53984 67.8952 3.96367 66.783L19.134 59.7675L62.4777 79.7874C69.1504 82.8674 76.8496 82.8674 83.5223 79.7874L126.866 59.7675ZM83.5223 116.291L126.866 96.271L142.036 103.287C144.46 104.399 146 106.823 146 109.504C146 112.184 144.46 114.608 142.036 115.721L79.7012 144.524C75.4523 146.492 70.5477 146.492 66.2988 144.524L3.96367 115.721C1.53984 114.58 0 112.156 0 109.504C0 106.851 1.53984 104.399 3.96367 103.287L19.134 96.271L62.4777 116.291C69.1504 119.371 76.8496 119.371 83.5223 116.291Z" fill="black" fill-opacity="0.2"/>
</svg>
