<svg width="163" height="130" viewBox="0 0 163 130" fill="none" xmlns="http://www.w3.org/2000/svg">
<path d="M36.675 40.625C25.4178 40.625 16.3 31.5352 16.3 20.3125C16.3 9.08984 25.4178 0 36.675 0C47.9322 0 57.05 9.08984 57.05 20.3125C57.05 31.5352 47.9322 40.625 36.675 40.625ZM130.4 40.625C119.143 40.625 110.025 31.5352 110.025 20.3125C110.025 9.08984 119.143 0 130.4 0C141.657 0 150.775 9.08984 150.775 20.3125C150.775 31.5352 141.657 40.625 130.4 40.625ZM0 75.8418C0 60.8867 12.1741 48.75 27.1752 48.75H38.0503C42.0998 48.75 45.9456 49.6387 49.4094 51.2129C49.0783 53.041 48.9255 54.9453 48.9255 56.875C48.9255 66.5742 53.2042 75.2832 59.9534 81.25C59.9025 81.25 59.8516 81.25 59.7752 81.25H5.42484C2.445 81.25 0 78.8125 0 75.8418ZM103.225 81.25C103.174 81.25 103.123 81.25 103.047 81.25C109.821 75.2832 114.075 66.5742 114.075 56.875C114.075 54.9453 113.896 53.0664 113.591 51.2129C117.054 49.6133 120.9 48.75 124.95 48.75H135.825C150.826 48.75 163 60.8867 163 75.8418C163 78.8379 160.555 81.25 157.575 81.25H103.225ZM105.95 56.875C105.95 70.332 94.9984 81.25 81.5 81.25C68.0016 81.25 57.05 70.332 57.05 56.875C57.05 43.418 68.0016 32.5 81.5 32.5C94.9984 32.5 105.95 43.418 105.95 56.875ZM32.6 123.221C32.6 104.533 47.8048 89.375 66.5498 89.375H96.4502C115.195 89.375 130.4 104.533 130.4 123.221C130.4 126.953 127.369 130 123.6 130H39.4002C35.6562 130 32.6 126.979 32.6 123.221Z" fill="black" fill-opacity="0.2"/>
</svg>
