<svg width="85" height="85" viewBox="0 0 85 85" fill="none" xmlns="http://www.w3.org/2000/svg">
<path d="M65 49.5833H72.375C73.3178 49.5833 73.7892 49.5833 74.0821 49.2904C74.375 48.9975 74.375 48.5261 74.375 47.5833V28.7917C74.375 26.906 74.375 25.9632 73.7892 25.3774C73.2034 24.7917 72.2606 24.7917 70.375 24.7917H14.625C12.7394 24.7917 11.7966 24.7917 11.2108 25.3774C10.625 25.9632 10.625 26.906 10.625 28.7917V48.5833C10.625 49.0547 10.625 49.2904 10.7714 49.4369C10.9179 49.5833 11.1536 49.5833 11.625 49.5833H20" stroke="#000000" stroke-width="3"/>
<path d="M21.25 73.6813L21.25 37.4167C21.25 36.4739 21.25 36.0025 21.5429 35.7096C21.8358 35.4167 22.3072 35.4167 23.25 35.4167L61.75 35.4167C62.6928 35.4167 63.1642 35.4167 63.4571 35.7096C63.75 36.0025 63.75 36.4739 63.75 37.4167L63.75 73.6813C63.75 73.9978 63.75 74.1561 63.6462 74.231C63.5424 74.3058 63.3922 74.2557 63.0919 74.1556L53.2831 70.886C53.2048 70.8599 53.1656 70.8469 53.125 70.8469C53.0844 70.8469 53.0452 70.8599 52.9669 70.886L42.6581 74.3223C42.5798 74.3484 42.5406 74.3615 42.5 74.3615C42.4594 74.3615 42.4202 74.3484 42.3419 74.3223L42.3419 74.3223L32.0331 70.886C31.9548 70.8599 31.9156 70.8469 31.875 70.8469C31.8344 70.8469 31.7952 70.8599 31.7169 70.886L21.9081 74.1556C21.6078 74.2557 21.4576 74.3058 21.3538 74.231C21.25 74.1561 21.25 73.9978 21.25 73.6813Z" stroke="#000000" stroke-width="3"/>
<path d="M63.75 24.7917V13.505C63.75 12.4969 63.75 11.9929 63.5538 11.6078C63.3812 11.2691 63.1059 10.9938 62.7672 10.8212C62.3821 10.625 61.8781 10.625 60.87 10.625H24.13C23.1219 10.625 22.6179 10.625 22.2328 10.8212C21.8941 10.9938 21.6188 11.2691 21.4462 11.6078C21.25 11.9929 21.25 12.4969 21.25 13.505V24.7917" stroke="#000000" stroke-width="3"/>
<path d="M35.4167 49.5833L46.0417 49.5833" stroke="#000000" stroke-width="3" stroke-linecap="round"/>
<path d="M35.4167 60.2083L51.3542 60.2083" stroke="#000000" stroke-width="3" stroke-linecap="round"/>
</svg>
