<svg width="176" height="141" viewBox="0 0 176 141" fill="none" xmlns="http://www.w3.org/2000/svg">
<path d="M96.58 1.32214C97.46 0.771461 98.395 0.413522 99.33 0.193252C100.623 -0.082086 101.97 -0.0545522 103.207 0.220786C105.325 0.716394 107.278 2.01048 108.543 3.96538L141.515 53.4711C143.935 57.0781 145.2 61.3458 145.2 65.6961V85.9335C145.2 87.8333 146.41 89.5128 148.198 90.1186L169.977 97.3875C173.58 98.5715 176 101.931 176 105.73V132.163C176 134.889 174.735 137.477 172.562 139.156C170.39 140.836 167.585 141.386 164.945 140.671L118.525 128.28C103.125 124.178 92.4 110.191 92.4 94.2211V61.6762C92.4 56.8027 96.3325 52.8654 101.2 52.8654C106.068 52.8654 110 56.8027 110 61.6762V83.7032C110 86.1262 111.98 88.1086 114.4 88.1086C116.82 88.1086 118.8 86.1262 118.8 83.7032V60.327C118.8 58.3997 118.305 56.5274 117.343 54.8754L93.5825 13.2443C93.115 12.4183 92.785 11.5647 92.5925 10.6836C92.3175 9.38954 92.3175 8.04038 92.62 6.80136C93.1425 4.59866 94.49 2.61623 96.5525 1.32214H96.58ZM79.42 1.32214C81.4825 2.58869 82.83 4.59866 83.3525 6.80136C83.655 8.06791 83.6825 9.38954 83.38 10.6836C83.1875 11.5647 82.8575 12.4183 82.39 13.2443L58.6575 54.8754C57.695 56.5274 57.2 58.4272 57.2 60.327V83.7032C57.2 86.1262 59.18 88.1086 61.6 88.1086C64.02 88.1086 66 86.1262 66 83.7032V61.6762C66 56.8027 69.9325 52.8654 74.8 52.8654C79.6675 52.8654 83.6 56.8027 83.6 61.6762V94.2487C83.6 110.218 72.875 124.178 57.475 128.308L11.0825 140.698C8.4425 141.414 5.61 140.836 3.465 139.184C1.32 137.532 0 134.916 0 132.163V105.73C0 101.931 2.42 98.5715 6.0225 97.36L27.8025 90.0911C29.59 89.4853 30.8 87.8057 30.8 85.9059V65.6686C30.8 61.3183 32.0925 57.0781 34.485 53.4436L67.43 3.99291C68.695 2.03802 70.6475 0.743928 72.765 0.248319C74.03 -0.0545522 75.35 -0.082086 76.6425 0.220786C77.605 0.441056 78.54 0.798995 79.3925 1.34967L79.42 1.32214Z" fill="black" fill-opacity="0.2"/>
</svg>
