<svg width="41" height="93" viewBox="0 0 41 93" fill="none" xmlns="http://www.w3.org/2000/svg">
<path d="M38.8003 56.1801V47.6678C39.8498 47.6164 40.6879 46.7491 40.6879 45.6875C40.6879 44.593 39.798 43.7026 38.7028 43.7026H37.1128V38.1645C38.0662 38.0201 38.8003 37.1975 38.8003 36.2043C38.8003 35.2227 38.0835 34.4076 37.1466 34.2491L33.855 28.4116V22.0593C33.855 21.7619 33.6135 21.5208 33.3163 21.5208H29.969L21.0387 5.6833V0.538508C21.0387 0.241105 20.7974 0 20.5002 0C20.2028 0 19.9617 0.241105 19.9617 0.538508V5.68269L11.031 21.5201H7.6839C7.3865 21.5201 7.1454 21.7615 7.1454 22.0587V28.411L3.85356 34.2485C2.91668 34.407 2.19989 35.2221 2.19989 36.2037C2.19989 37.1969 2.93402 38.0197 3.88763 38.1639V43.702H2.29739C1.20283 43.702 0.312256 44.5924 0.312256 45.6869C0.312256 46.7489 1.15062 47.616 2.19989 47.6672V56.1795C1.15062 56.2309 0.312256 57.098 0.312256 58.1595C0.312256 59.221 1.15062 60.0884 2.19989 60.1398V92.4613C2.19989 92.7587 2.441 92.9998 2.7384 92.9998H38.2614C38.559 92.9998 38.8001 92.7587 38.8001 92.4613V60.1404C39.8496 60.089 40.6881 59.2219 40.6881 58.1601C40.6881 57.0984 39.8496 56.2313 38.8003 56.1801ZM8.15286 28.8169C8.19835 28.7364 8.22221 28.6452 8.22221 28.5524V22.5974H11.3456C11.54 22.5974 11.7192 22.4927 11.8145 22.3234L20.5 6.92085L29.1857 22.3234C29.2814 22.4927 29.4607 22.5974 29.6546 22.5974H32.778V28.5524C32.778 28.6452 32.8019 28.7364 32.8478 28.8169L35.8936 34.2187H5.10702L8.15286 28.8169ZM3.27691 36.2037C3.27691 35.7029 3.68426 35.2956 4.18503 35.2956H36.8154C37.3157 35.2956 37.7229 35.7029 37.7229 36.2037C37.7229 36.7044 37.3157 37.1118 36.8154 37.1118H36.5739H4.42634H4.18523C3.68426 37.1118 3.27691 36.7044 3.27691 36.2037ZM36.0354 38.1888V43.7022H4.96464V38.1888H36.0354ZM1.38927 45.6871C1.38927 45.1866 1.79662 44.7792 2.29739 44.7792H4.42613H36.5739H38.7026C39.2038 44.7792 39.6109 45.1866 39.6109 45.6871C39.6109 46.1881 39.2038 46.5955 38.7026 46.5955H38.2616H2.7384H2.29739C1.79662 46.5955 1.38927 46.1881 1.38927 45.6871ZM37.7229 47.6723V56.1752H3.27691V47.6723H37.7229ZM37.7229 91.9234H3.27691V60.1455H37.7229V91.9234ZM38.7026 59.0683H38.2616H2.7384H2.29739C1.79662 59.0683 1.38927 58.6609 1.38927 58.1601C1.38927 57.6596 1.79662 57.2522 2.29739 57.2522H2.7384H38.2616H38.7026C39.2034 57.2522 39.6109 57.6596 39.6109 58.1601C39.6109 58.6609 39.2038 59.0683 38.7026 59.0683Z" fill="black"/>
<path d="M7.13275 70.9795H11.1512C11.4486 70.9795 11.6897 70.7384 11.6897 70.4408V63.6896C11.6897 63.3924 11.4486 63.1511 11.1512 63.1511H7.13275C6.83534 63.1511 6.59424 63.3924 6.59424 63.6896V70.4408C6.59424 70.7384 6.83534 70.9795 7.13275 70.9795ZM7.67105 64.2283H10.6125V69.9021H7.67105V64.2283Z" fill="black"/>
<path d="M18.4908 70.9795H22.5092C22.8064 70.9795 23.0479 70.7384 23.0479 70.4408V63.6896C23.0479 63.3924 22.8064 63.1511 22.5092 63.1511H18.4908C18.1934 63.1511 17.9523 63.3924 17.9523 63.6896V70.4408C17.9523 70.7384 18.1934 70.9795 18.4908 70.9795ZM19.0293 64.2283H21.9705V69.9021H19.0293V64.2283Z" fill="black"/>
<path d="M29.8486 70.9795H33.8669C34.1645 70.9795 34.4056 70.7384 34.4056 70.4408V63.6896C34.4056 63.3924 34.1645 63.1511 33.8669 63.1511H29.8486C29.551 63.1511 29.3103 63.3924 29.3103 63.6896V70.4408C29.3103 70.7384 29.551 70.9795 29.8486 70.9795ZM30.3873 64.2283H33.3288V69.9021H30.3873V64.2283Z" fill="black"/>
<path d="M5.52844 54.9309H8.91166C9.20906 54.9309 9.45017 54.6898 9.45017 54.3922V51.1465C9.45017 49.9169 8.44985 48.9162 7.22005 48.9162C5.99025 48.9162 4.98993 49.9165 4.98993 51.1465V54.3922C4.98993 54.6898 5.23103 54.9309 5.52844 54.9309ZM6.06715 51.1465C6.06715 50.5109 6.58445 49.9936 7.22025 49.9936C7.85606 49.9936 8.37335 50.5109 8.37335 51.1465V53.8537H6.06715V51.1465Z" fill="black"/>
<path d="M12.1684 54.9309H15.5516C15.849 54.9309 16.0901 54.6898 16.0901 54.3922V51.1465C16.0901 49.9169 15.0898 48.9162 13.86 48.9162C12.6302 48.9162 11.6299 49.9165 11.6299 51.1465V54.3922C11.6301 54.6898 11.871 54.9309 12.1684 54.9309ZM12.7069 51.1465C12.7069 50.5109 13.2242 49.9936 13.86 49.9936C14.4958 49.9936 15.0131 50.5109 15.0131 51.1465V53.8537H12.7069V51.1465Z" fill="black"/>
<path d="M18.8084 54.9309H22.1916C22.4892 54.9309 22.7299 54.6898 22.7299 54.3922V51.1465C22.7299 49.9169 21.7296 48.9162 20.5 48.9162C19.2704 48.9162 18.2699 49.9165 18.2699 51.1465V54.3922C18.2699 54.6898 18.511 54.9309 18.8084 54.9309ZM19.3471 51.1465C19.3471 50.5109 19.8644 49.9936 20.5002 49.9936C21.1366 49.9936 21.6533 50.5109 21.6533 51.1465V53.8537H19.3471V51.1465Z" fill="black"/>
<path d="M25.4484 54.9309H28.8316C29.1292 54.9309 29.3703 54.6898 29.3703 54.3922V51.1465C29.3703 49.9169 28.37 48.9162 27.14 48.9162C25.9106 48.9162 24.9096 49.9165 24.9096 51.1465V54.3922C24.9096 54.6898 25.1512 54.9309 25.4484 54.9309ZM25.9869 51.1465C25.9869 50.5109 26.504 49.9936 27.1398 49.9936C27.7756 49.9936 28.2931 50.5109 28.2931 51.1465V53.8537H25.9865V51.1465H25.9869Z" fill="black"/>
<path d="M32.0879 54.9309H35.4716C35.7692 54.9309 36.0099 54.6898 36.0099 54.3922V51.1465C36.0099 49.9169 35.0099 48.9162 33.7795 48.9162C32.5506 48.9162 31.5496 49.9165 31.5496 51.1465V54.3922C31.5498 54.6898 31.7907 54.9309 32.0879 54.9309ZM32.6266 51.1465C32.6266 50.5109 33.1441 49.9936 33.7795 49.9936C34.4153 49.9936 34.9324 50.5109 34.9324 51.1465V53.8537H32.6264V51.1465H32.6266Z" fill="black"/>
<path d="M8.33175 43.1716H10.5937C10.8911 43.1716 11.1322 42.9305 11.1322 42.6331V39.5255C11.1322 39.2281 10.8911 38.987 10.5937 38.987H8.33175C8.03435 38.987 7.79324 39.2281 7.79324 39.5255V42.6331C7.79304 42.9305 8.03435 43.1716 8.33175 43.1716ZM8.87026 40.064H10.0552V42.0946H8.87026V40.064Z" fill="black"/>
<path d="M13.8502 43.1716H16.1122C16.4096 43.1716 16.6507 42.9305 16.6507 42.6331V39.5255C16.6507 39.2281 16.4096 38.987 16.1122 38.987H13.8502C13.5528 38.987 13.3117 39.2281 13.3117 39.5255V42.6331C13.3117 42.9305 13.553 43.1716 13.8502 43.1716ZM14.3888 40.064H15.5737V42.0946H14.3888V40.064Z" fill="black"/>
<path d="M19.3689 43.1716H21.6311C21.9283 43.1716 22.1694 42.9305 22.1694 42.6331V39.5255C22.1694 39.2281 21.9283 38.987 21.6311 38.987H19.3689C19.0715 38.987 18.8304 39.2281 18.8304 39.5255V42.6331C18.8304 42.9305 19.0715 43.1716 19.3689 43.1716ZM19.9076 40.064H21.0928V42.0946H19.9076V40.064Z" fill="black"/>
<path d="M24.8878 43.1716H27.1496C27.4472 43.1716 27.6883 42.9305 27.6883 42.6331V39.5255C27.6883 39.2281 27.4472 38.987 27.1496 38.987H24.8878C24.5902 38.987 24.3491 39.2281 24.3491 39.5255V42.6331C24.3491 42.9305 24.5902 43.1716 24.8878 43.1716ZM25.4263 40.064H26.6113V42.0946H25.4263V40.064Z" fill="black"/>
<path d="M30.4067 43.1716H32.6685C32.9661 43.1716 33.2072 42.9305 33.2072 42.6331V39.5255C33.2072 39.2281 32.9661 38.987 32.6685 38.987H30.4067C30.1091 38.987 29.868 39.2281 29.868 39.5255V42.6331C29.8682 42.9305 30.1091 43.1716 30.4067 43.1716ZM30.945 40.064H32.1299V42.0946H30.945V40.064Z" fill="black"/>
</svg>
