<svg width="40" height="93" viewBox="0 0 40 93" fill="none" xmlns="http://www.w3.org/2000/svg">
<path d="M34 43H4V72H34V43Z" stroke="black" stroke-linecap="round" stroke-linejoin="round"/>
<path d="M19.5 66C23.6421 66 27 62.4183 27 58C27 53.5817 23.6421 50 19.5 50C15.3579 50 12 53.5817 12 58C12 62.4183 15.3579 66 19.5 66Z" stroke="black" stroke-linecap="round" stroke-linejoin="round"/>
<path d="M34 72H4V92H34V72Z" stroke="black" stroke-linecap="round" stroke-linejoin="round"/>
<path d="M6 92H34" stroke="black" stroke-linecap="round" stroke-linejoin="round"/>
<path d="M15 74V90" stroke="black" stroke-linecap="round" stroke-linejoin="round"/>
<path d="M10 74V90" stroke="black" stroke-linecap="round" stroke-linejoin="round"/>
<path d="M19 74V90" stroke="black" stroke-linecap="round" stroke-linejoin="round"/>
<path d="M24 74V90" stroke="black" stroke-linecap="round" stroke-linejoin="round"/>
<path d="M28 74V90" stroke="black" stroke-linecap="round" stroke-linejoin="round"/>
<path d="M33 33H6V43H33V33Z" stroke="black" stroke-linecap="round" stroke-linejoin="round"/>
<path d="M25 24H13L7 33H31L25 24Z" stroke="black" stroke-linecap="round" stroke-linejoin="round"/>
<path d="M13 24V13H25V24" stroke="black" stroke-linecap="round" stroke-linejoin="round"/>
<path d="M25 13V8.9995L18.595 1L13 8.9995V13" stroke="black" stroke-linecap="round" stroke-linejoin="round"/>
<path d="M19 56V59.3338L21 61" stroke="black" stroke-linecap="round" stroke-linejoin="round"/>
<path d="M10 37V39" stroke="black" stroke-linecap="round" stroke-linejoin="round"/>
<path d="M15 37V39" stroke="black" stroke-linecap="round" stroke-linejoin="round"/>
<path d="M19 37V39" stroke="black" stroke-linecap="round" stroke-linejoin="round"/>
<path d="M19 18V19" stroke="black" stroke-linecap="round" stroke-linejoin="round"/>
<path d="M24 37V39" stroke="black" stroke-linecap="round" stroke-linejoin="round"/>
<path d="M28 37V39" stroke="black" stroke-linecap="round" stroke-linejoin="round"/>
<path d="M34 53H39" stroke="black" stroke-linecap="round" stroke-linejoin="round"/>
<path d="M1 53H4" stroke="black" stroke-linecap="round" stroke-linejoin="round"/>
<path d="M34 69H39" stroke="black" stroke-linecap="round" stroke-linejoin="round"/>
<path d="M1 69H4" stroke="black" stroke-linecap="round" stroke-linejoin="round"/>
</svg>
