<svg width="93" height="93" viewBox="0 0 93 93" fill="none" xmlns="http://www.w3.org/2000/svg">
<path d="M59.5781 53.7656H30.5156V61.0312H59.5781V53.7656Z" stroke="black" stroke-width="2" stroke-linecap="round" stroke-linejoin="round"/>
<path d="M30.1523 88.2788C30.2033 84.4822 31.7599 80.8612 34.4799 78.212C37.2 75.5628 40.8608 74.1022 44.6574 74.1515H45.4014C49.1981 74.1022 52.8589 75.5628 55.5789 78.212C58.299 80.8612 59.8556 84.4822 59.9065 88.2788V88.6406H77.0156L57.2008 61.0312H32.97L14.5312 88.6406H30.1523V88.2788Z" stroke="black" stroke-width="2" stroke-linecap="round" stroke-linejoin="round"/>
<path d="M18.7889 82.8078H30.4836" stroke="black" stroke-width="2" stroke-linecap="round" stroke-linejoin="round"/>
<path d="M59.7205 82.8078L72.3293 82.8281" stroke="black" stroke-width="2" stroke-linecap="round" stroke-linejoin="round"/>
<path d="M31.6404 81.375L40.2298 61.6532" stroke="black" stroke-width="2" stroke-linecap="round" stroke-linejoin="round"/>
<path d="M60.7522 82.8281L49.7187 61.2303" stroke="black" stroke-width="2" stroke-linecap="round" stroke-linejoin="round"/>
<path d="M56.2098 53.7656H33.884L38.8188 26.1562H51.275L56.2098 53.7656Z" stroke="black" stroke-width="2" stroke-linecap="round" stroke-linejoin="round"/>
<path d="M37.7318 34.8837H52.2689" stroke="black" stroke-width="2" stroke-linecap="round" stroke-linejoin="round"/>
<path d="M49.1984 26.1562H40.8953L42.4022 7.26562H47.6916L49.1984 26.1562Z" stroke="black" stroke-width="2" stroke-linecap="round" stroke-linejoin="round"/>
<path d="M45.0469 7.26562V2.90625" stroke="black" stroke-width="2" stroke-linecap="round" stroke-linejoin="round"/>
<path d="M39.2344 47.9531H43.5938" stroke="black" stroke-width="2" stroke-linecap="round" stroke-linejoin="round"/>
<path d="M40.6875 42.1406H49.4062" stroke="black" stroke-width="2" stroke-linecap="round" stroke-linejoin="round"/>
<path d="M52.7005 65.9443L62.4844 68.2969L58.6975 76.3821L71.2031 81.375" stroke="black" stroke-width="2" stroke-linecap="round" stroke-linejoin="round"/>
<path d="M38.0442 65.9443L27.8273 69.2748L32.7142 77.2699L20.4992 81.4898" stroke="black" stroke-width="2" stroke-linecap="round" stroke-linejoin="round"/>
</svg>
