<svg width="58" height="53" viewBox="0 0 58 53" fill="none" xmlns="http://www.w3.org/2000/svg">
<path d="M34.1891 7.89948C34.1551 8.12858 34.0536 8.34233 33.8974 8.51335C33.7412 8.68437 33.5376 8.80486 33.3125 8.8594C33.0874 8.91393 32.8512 8.90002 32.634 8.81944C32.4169 8.73887 32.2288 8.5953 32.0938 8.40713L29.6511 5.06026C29.4705 4.81066 29.3963 4.49958 29.4448 4.19533C29.4933 3.89107 29.6605 3.61849 29.9098 3.43744L33.2511 0.98635C33.4367 0.850341 33.6585 0.772456 33.8884 0.762552C34.1183 0.752649 34.346 0.811172 34.5426 0.930715C34.7392 1.05026 34.896 1.22545 34.993 1.43411C35.09 1.64277 35.123 1.87552 35.0877 2.10291L34.8064 3.90151C38.8498 4.74412 42.6605 6.45955 45.972 8.92792C49.2836 11.3963 52.0162 14.558 53.9789 18.1922C55.9415 21.8264 57.0869 25.8453 57.335 29.9681C57.583 34.091 56.9278 38.2182 55.415 42.0615L54.0088 45.2734H51.2384L53.0666 41.1095C54.4375 37.6206 55.0325 33.8751 54.8102 30.1331C54.5879 26.3911 53.5537 22.7423 51.7793 19.4403C50.005 16.1382 47.5331 13.262 44.5353 11.0114C41.5375 8.7608 38.0857 7.18977 34.4197 6.40744L34.1891 7.89948Z" fill="#444444"/>
<path d="M1.11828 42.2035L2.72422 41.5468C1.47684 38.3019 0.839437 34.8546 0.844063 31.3782C0.844063 17.8599 10.4586 6.16271 23.7055 3.56396L24.192 6.04881C12.1306 8.41412 3.37953 19.0665 3.37953 31.3782C3.37399 34.5245 3.94597 37.6451 5.06703 40.5849L6.545 39.9788C6.75774 39.8912 6.99172 39.8687 7.21725 39.9142C7.44279 39.9597 7.64972 40.0712 7.81181 40.2345C7.9739 40.3978 8.08385 40.6056 8.1277 40.8314C8.17155 41.0573 8.14734 41.2911 8.05812 41.5032L6.45641 45.3254C6.33716 45.6093 6.11014 45.8344 5.82515 45.9512C5.54016 46.068 5.22048 46.067 4.93625 45.9483L1.11266 44.3593C0.89826 44.2718 0.714863 44.1223 0.585962 43.9299C0.45706 43.7375 0.388521 43.5111 0.389126 43.2795C0.38973 43.0479 0.459448 42.8218 0.589352 42.6301C0.719255 42.4384 0.903433 42.2899 1.11828 42.2035Z" fill="#444444"/>
<path d="M16.9372 20.754C19.5964 20.6261 24.5858 20.927 28.1394 24.354C28.5156 24.7169 28.8661 25.1055 29.1884 25.517C29.5102 25.1055 29.8603 24.7169 30.2361 24.354C33.7911 20.927 38.7805 20.6261 41.4397 20.754C42.2881 20.7909 43.0919 21.1446 43.6923 21.7452C44.2927 22.3459 44.646 23.1498 44.6825 23.9982C44.8091 26.6561 44.5095 31.6454 41.0825 35.2004C38.63 37.7443 35.0539 39.0732 30.4513 39.1632V50.4695H40.482V53.0007H17.9722V50.4695H27.92V39.1632C23.3202 39.0718 19.7455 37.7429 17.293 35.2004C13.8659 31.6454 13.5664 26.6561 13.693 23.9982C13.7301 23.1498 14.0839 22.346 14.6844 21.7455C15.285 21.1449 16.0887 20.7912 16.9372 20.754ZM42.1541 24.1178C42.1444 23.8993 42.0533 23.6924 41.8987 23.5378C41.7441 23.3832 41.5372 23.2921 41.3188 23.2825C39.0688 23.1742 34.8641 23.409 31.9939 26.1765C29.9984 28.0989 28.9325 30.9817 28.8102 34.7547C30.7663 30.6765 34.708 29.3743 34.9091 29.3111L35.6333 31.5892C35.5925 31.6018 31.977 32.8 30.6242 36.6334C34.4211 36.5223 37.3278 35.4522 39.26 33.4482C42.0275 30.5781 42.2609 26.3678 42.1541 24.1178Z" fill="#444444"/>
</svg>
