<svg width="40" height="40" viewBox="0 0 40 40" fill="none" xmlns="http://www.w3.org/2000/svg">
<path d="M13.3333 25.0001C13.3333 25.0001 16 28.3335 20 28.3335C24 28.3335 26.6667 25.0001 26.6667 25.0001M5 24.3335V20.217C5 18.3025 5 17.3451 5.24675 16.4636C5.46533 15.6827 5.82455 14.9483 6.30675 14.2963C6.85112 13.5603 7.60673 12.9726 9.11797 11.7972L13.4513 8.42685C15.7935 6.60517 16.9645 5.69432 18.2577 5.3442C19.3987 5.03525 20.6013 5.03525 21.7423 5.3442C23.0355 5.69432 24.2065 6.60517 26.5487 8.42685L30.882 11.7972C32.3933 12.9726 33.1488 13.5603 33.6932 14.2963C34.1755 14.9483 34.5347 15.6827 34.7532 16.4636C35 17.3451 35 18.3025 35 20.217V24.3335C35 28.0671 35 29.934 34.2733 31.36C33.6342 32.6145 32.6143 33.6343 31.36 34.2735C29.9338 35.0001 28.067 35.0001 24.3333 35.0001H15.6667C11.933 35.0001 10.0662 35.0001 8.64007 34.2735C7.38565 33.6343 6.36578 32.6145 5.72662 31.36C5 29.934 5 28.0671 5 24.3335Z" stroke="#555555" stroke-width="3" stroke-linecap="round" stroke-linejoin="round"/>
</svg>
