<svg width="37" height="37" viewBox="0 0 37 37" fill="none" xmlns="http://www.w3.org/2000/svg">
<path d="M8 17.2154C13.799 11.5949 23.201 11.5949 29 17.2154M11.5 20.6073C15.3661 16.8604 21.6341 16.8604 25.5 20.6073M15 24C16.933 22.1265 20.0671 22.1265 22 24" stroke="#555555" stroke-width="3" stroke-linecap="round"/>
<path d="M35 18.8364V21.3463C35 27.7826 35 31.0009 33.0669 33.0004C31.1339 35 28.0225 35 21.8 35H15.2C8.97745 35 5.8662 35 3.93309 33.0004C2 31.0009 2 27.7826 2 21.3463V18.8364C2 15.0606 2 13.1726 2.85668 11.6075C3.71336 10.0424 5.27847 9.07109 8.40865 7.12841L11.7086 5.08034C15.0175 3.02678 16.672 2 18.5 2C20.328 2 21.9825 3.02678 25.2914 5.08034L28.5914 7.1284C31.7216 9.07109 33.2866 10.0424 34.1433 11.6075" stroke="#555555" stroke-width="3" stroke-linecap="round"/>
</svg>