<svg width="55" height="54" viewBox="0 0 55 54" fill="none" xmlns="http://www.w3.org/2000/svg">
<path d="M35.2164 53.508C34.5324 53.508 33.8466 53.248 33.3265 52.7278L9.05159 28.4494C8.19303 27.5908 7.55178 25.9646 7.59275 24.7515L8.1004 10.0473C8.1485 8.60806 9.36153 7.39681 10.8026 7.34694L13.9607 7.25253C14.431 7.25253 14.8638 7.62125 14.8816 8.11288C14.8977 8.6045 14.5129 9.01775 14.0231 9.03556L10.8613 9.12997C10.3555 9.14778 9.89768 9.60556 9.87987 10.1097L9.37222 24.8139C9.34906 25.5406 9.79615 26.6753 10.3109 27.1901L34.5876 51.4667C34.9349 51.8141 35.4996 51.8141 35.8469 51.4667L52.2202 35.0917C52.3876 34.9242 52.4802 34.7016 52.4802 34.4611C52.4802 34.2207 52.3876 33.998 52.2202 33.8306L27.9453 9.55925C27.4305 9.04447 26.3297 8.54216 25.5656 8.62231L18.551 8.86456C18.0309 8.83428 17.6461 8.49585 17.6283 8.006C17.6123 7.51438 17.997 7.10113 18.4869 7.08331L25.5032 6.84106C26.7412 6.84463 28.3443 7.44135 29.2029 8.29991L53.4777 32.573C53.9801 33.0753 54.2579 33.7468 54.2579 34.4629C54.2579 35.179 53.9801 35.8487 53.4777 36.3528L37.1045 52.7278C36.5862 53.2462 35.9004 53.508 35.2164 53.508Z" fill="#444444"/>
<path d="M18.5937 23.0058C15.6476 23.0058 13.25 20.6082 13.25 17.662C13.25 15.765 14.2368 14.0497 15.8862 13.0718C16.3066 12.8224 16.8552 12.9613 17.1082 13.3853C17.3593 13.8092 17.2186 14.356 16.7947 14.6072C15.6903 15.2591 15.0312 16.4027 15.0312 17.662C15.0312 19.6268 16.629 21.2245 18.5937 21.2245C20.5585 21.2245 22.1562 19.6268 22.1562 17.662C22.1562 16.0215 21.0341 14.6054 19.4274 14.2189C18.9482 14.1049 18.6543 13.6222 18.7701 13.143C18.8841 12.6674 19.3508 12.3753 19.846 12.4857C22.2542 13.0646 23.9375 15.1932 23.9375 17.662C23.9375 20.6082 21.5399 23.0058 18.5937 23.0058Z" fill="#444444"/>
<path d="M27.0921 29.3954C26.6005 29.8977 26.0465 30.1969 25.4248 30.2824C25.0116 30.3483 24.5948 30.2717 24.178 30.0491C23.9535 29.9315 23.7273 29.757 23.4993 29.5325C23.0789 29.1068 22.8313 28.6526 22.7637 28.1681C22.7013 27.7637 22.753 27.3469 22.9115 26.9194C23.0718 26.4902 23.3283 26.0716 23.6881 25.6708L24.1138 26.0413C24.4843 26.3619 24.5698 26.9604 24.3027 27.3719C24.3027 27.3719 24.2225 27.4948 24.2118 27.8564C24.1993 28.1307 24.2795 28.3444 24.4558 28.503C24.6999 28.7327 25.0045 28.8022 25.3696 28.7167C25.5513 28.6793 25.7473 28.5582 25.9485 28.3516C26.246 28.0559 26.4081 27.6284 26.4313 27.0655C26.4206 26.6522 26.4028 26.027 26.3832 25.1987C26.3707 24.4952 26.4259 23.9305 26.5542 23.5101C26.7038 23.0452 26.9567 22.6266 27.3183 22.265C27.9685 21.6202 28.681 21.3406 29.4523 21.4457C29.9243 21.5116 30.3607 21.7485 30.7579 22.1475C31.1427 22.5322 31.3849 22.9455 31.4882 23.389C31.5666 23.7363 31.5523 24.0944 31.4455 24.4649C31.3368 24.8354 31.1391 25.1898 30.8541 25.5301L30.3678 25.1934C29.9635 24.9137 29.8174 24.4007 30.0418 24.0516C30.0418 24.0516 30.0418 24.0516 30.0686 23.7488C30.0882 23.5315 30.0044 23.332 29.8156 23.1467C29.6197 22.9472 29.381 22.8849 29.1085 22.9597C28.8823 23.0132 28.6649 23.1467 28.4583 23.3587C28.1288 23.6847 27.9364 24.1567 27.8812 24.7784C27.858 25.0153 27.8652 25.3252 27.9043 25.7117C27.9435 26.1713 27.9631 26.4848 27.9613 26.6469C27.9596 27.1795 27.9043 27.648 27.7886 28.0505C27.7369 28.2376 27.6781 28.405 27.6193 28.5493C27.4626 28.9091 27.2898 29.1887 27.0921 29.3954Z" fill="#444444"/>
<path d="M29.8263 32.4039C29.5164 32.0939 28.9393 32.0761 28.542 32.3647L28.0807 32.6995C27.6835 32.9863 27.1063 32.9685 26.7964 32.6621C26.4883 32.354 26.5631 31.8713 26.9638 31.5863L33.868 26.686C34.2688 26.4028 34.8779 26.4545 35.2253 26.8L35.4479 27.0209C35.7935 27.3665 35.8452 27.9775 35.5602 28.3765L30.6475 35.2663C30.3643 35.6653 29.8744 35.7384 29.5645 35.4266C29.2545 35.1149 29.2332 34.5378 29.5253 34.1424L29.8602 33.6828C30.1505 33.2891 30.1345 32.7138 29.8263 32.4039ZM33.159 29.2528C33.4547 28.861 33.3746 28.7826 32.9827 29.0765L31.1908 30.4231C30.7989 30.717 30.6582 31.1374 30.8773 31.3565C31.0981 31.5774 31.5167 31.4366 31.8124 31.0448L33.159 29.2528Z" fill="#444444"/>
<path d="M34.8156 39.6072C34.5199 39.9011 33.9944 39.8602 33.6489 39.5128L31.9745 37.8349C31.6289 37.4893 31.6289 36.9211 31.9745 36.5755L37.858 30.6903C38.2035 30.3447 38.7308 30.3038 39.0265 30.5994C39.3222 30.8969 39.283 31.4242 38.9356 31.7697L34.1227 36.5809C33.7771 36.9264 33.7771 37.4947 34.1227 37.8402L34.723 38.4405C35.0685 38.7878 35.1095 39.3133 34.8156 39.6072Z" fill="#444444"/>
<path d="M35.9556 41.8179C35.61 41.4723 35.61 40.9041 35.9556 40.5585L41.8444 34.6662C42.19 34.3206 42.7582 34.3206 43.1037 34.6662L44.9135 36.4741C45.2591 36.8197 45.3 37.3469 45.0008 37.6444C44.7033 37.9437 44.1761 37.9045 43.8305 37.5571L43.1002 36.8286C42.7546 36.483 42.1864 36.483 41.8408 36.8286L41.1515 37.5162C40.8059 37.8617 40.8059 38.4299 41.1497 38.7773L41.3457 38.9714C41.6894 39.3188 41.7304 39.846 41.4312 40.1435C41.1337 40.441 40.6064 40.4018 40.2609 40.0544L40.0667 39.8621C39.7212 39.5165 39.1529 39.5165 38.8074 39.8621L38.118 40.5514C37.7725 40.897 37.7725 41.4652 38.118 41.8107L38.8483 42.5428C39.1939 42.8884 39.2349 43.4157 38.9356 43.7131C38.6364 44.0106 38.1091 43.9714 37.7636 43.6241L35.9556 41.8179Z" fill="#444444"/>
<path d="M14.7462 19.8389C14.3633 19.8389 14.0106 19.5913 13.893 19.2083C13.7505 18.7381 14.0142 18.2411 14.4862 18.0968C15.3786 17.8261 16.1552 17.3647 16.7911 16.7288C19.4666 14.0516 18.8378 9.07121 15.3911 5.62449C13.6971 3.92874 11.5863 2.85999 9.45059 2.61952C7.39325 2.3844 5.55856 2.95618 4.28853 4.22621C1.61487 6.90165 2.24187 11.882 5.68859 15.3287C5.80259 15.4427 5.92015 15.5567 6.03772 15.6654C6.40109 15.9985 6.42425 16.5614 6.09115 16.923C5.75628 17.2881 5.19519 17.3095 4.83359 16.9764C4.69465 16.8499 4.56106 16.7181 4.42747 16.5863C0.289623 12.4485 -0.340939 6.33699 3.02919 2.96687C4.68575 1.30496 7.03344 0.551491 9.65009 0.848959C12.1866 1.13574 14.6732 2.3844 16.6504 4.36515C20.7918 8.50655 21.4206 14.618 18.0505 17.9881C17.2026 18.8342 16.1784 19.4417 15.0045 19.8015C14.919 19.8264 14.8317 19.8389 14.7462 19.8389Z" fill="#444444"/>
</svg>
