<svg width="55" height="55" viewBox="0 0 55 55" fill="none" xmlns="http://www.w3.org/2000/svg">
<path d="M27.5 49.8437C37.862 46.2717 45.2472 37.9693 46.4062 27.3981C46.7275 22.8092 46.7003 18.2023 46.3244 13.6175C46.2215 12.12 44.9973 10.9461 43.4969 10.9061C38.8091 10.7618 33.3614 9.98064 29.151 5.83318C28.2357 4.93061 26.7652 4.93061 25.8499 5.83318C21.6391 9.98018 16.1913 10.7618 11.5042 10.9061C10.0037 10.9461 8.77949 12.12 8.67659 13.6175C8.30042 18.2023 8.2728 22.809 8.59375 27.3981C9.75276 37.9693 17.138 46.2717 27.5 49.8437Z" stroke="#444444" stroke-width="3" stroke-linecap="round" stroke-linejoin="round"/>
<path d="M27.5002 28.2493C29.6884 28.2493 31.4622 26.4755 31.4622 24.2874C31.4622 22.0993 29.6884 20.3254 27.5002 20.3254C25.3121 20.3254 23.5383 22.0993 23.5383 24.2874C23.5383 26.4755 25.3121 28.2493 27.5002 28.2493Z" stroke="#444444" stroke-width="3" stroke-linecap="round" stroke-linejoin="round"/>
<path d="M27.5002 32.3831V28.2493" stroke="#444444" stroke-width="3" stroke-linecap="round" stroke-linejoin="round"/>
</svg>
