<svg width="39" height="39" viewBox="0 0 39 39" fill="none" xmlns="http://www.w3.org/2000/svg">
<path d="M35.75 35.75H3.25" stroke="#555555" stroke-width="3" stroke-linecap="round"/>
<path d="M3.25 17.875L9.85231 12.5932M35.75 17.875L22.5454 7.31136C20.7649 5.88702 18.2351 5.88702 16.4546 7.31136L15.184 8.32788" stroke="#555555" stroke-width="3" stroke-linecap="round"/>
<path d="M25.1875 8.9375V5.6875C25.1875 5.23877 25.5513 4.875 26 4.875H30.0625C30.5112 4.875 30.875 5.23877 30.875 5.6875V13.8125" stroke="#555555" stroke-width="3" stroke-linecap="round"/>
<path d="M6.5 35.75V15.4375" stroke="#555555" stroke-width="3" stroke-linecap="round"/>
<path d="M32.5 15.4375V21.9375M32.5 35.75V28.4375" stroke="#555555" stroke-width="3" stroke-linecap="round"/>
<path d="M24.375 35.75V27.625C24.375 25.3269 24.375 24.1779 23.6611 23.4639C22.9471 22.75 21.7981 22.75 19.5 22.75C17.2019 22.75 16.0529 22.75 15.3389 23.4639M14.625 35.75V27.625" stroke="#555555" stroke-width="3" stroke-linecap="round" stroke-linejoin="round"/>
<path d="M22.75 15.4375C22.75 17.2325 21.295 18.6875 19.5 18.6875C17.705 18.6875 16.25 17.2325 16.25 15.4375C16.25 13.6426 17.705 12.1875 19.5 12.1875C21.295 12.1875 22.75 13.6426 22.75 15.4375Z" stroke="#555555" stroke-width="3"/>
</svg>
